<svg xmlns="http://www.w3.org/2000/svg" width="680" height="380" viewBox="0 0 680 380">
  <defs>
    <linearGradient id="r_ibg" x1="0" y1="0" x2="0.6" y2="1">
      <stop offset="0%" stop-color="#1E2042"/>
      <stop offset="100%" stop-color="#0C0E1E"/>
    </linearGradient>
    <linearGradient id="r_brand" x1="0" y1="0" x2="1" y2="0">
      <stop offset="0%" stop-color="#4776F0"/>
      <stop offset="100%" stop-color="#8B5CF6"/>
    </linearGradient>
    <linearGradient id="r_top" x1="0" y1="0" x2="0" y2="1">
      <stop offset="0%" stop-color="white" stop-opacity="0.22"/>
      <stop offset="55%" stop-color="white" stop-opacity="0.04"/>
      <stop offset="100%" stop-color="white" stop-opacity="0"/>
    </linearGradient>
    <linearGradient id="r_word" x1="0" y1="0" x2="1" y2="0">
      <stop offset="0%" stop-color="#60A5FA"/>
      <stop offset="40%" stop-color="#818CF8"/>
      <stop offset="100%" stop-color="#C084FC"/>
    </linearGradient>
    <linearGradient id="r_card" x1="0" y1="0" x2="0" y2="1">
      <stop offset="0%" stop-color="#111326"/>
      <stop offset="100%" stop-color="#080910"/>
    </linearGradient>
  </defs>

  <rect x="0" y="0" width="680" height="380" rx="0" fill="url(#r_card)"/>
  <rect x="240" y="28" width="200" height="200" rx="46" fill="url(#r_ibg)"/>
  <rect x="241.5" y="29.5" width="197" height="197" rx="45" fill="none" stroke="white" stroke-width="1" opacity="0.12"/>
  <ellipse cx="340" cy="200" rx="80" ry="28" fill="#5B6EF8" opacity="0.13"/>

  <path d="M 289,130 L 289,94 L 340,50 L 391,94 L 391,130"
        stroke="white" stroke-width="8.5" fill="none"
        stroke-linecap="round" stroke-linejoin="round" opacity="0.93"/>

  <rect x="270" y="130" width="140" height="76" rx="13" fill="url(#r_brand)"/>
  <rect x="270" y="130" width="140" height="76" rx="13" fill="url(#r_top)"/>
  <line x1="270" y1="163" x2="410" y2="163" stroke="white" stroke-width="1" opacity="0.16"/>
  <circle cx="340" cy="150" r="14" fill="white" opacity="0.07"/>
  <circle cx="340" cy="150" r="9"  fill="white" opacity="0.15"/>
  <circle cx="340" cy="150" r="4.5" fill="white" opacity="0.6"/>

  <text x="340" y="270"
        text-anchor="middle"
        font-family="Arial Black, Arial, sans-serif"
        font-size="66" font-weight="900" letter-spacing="6"
        fill="url(#r_word)">NOJOB</text>

  <text x="340" y="303"
        text-anchor="middle"
        font-family="Arial, sans-serif"
        font-size="12.5" fill="#4B5563" letter-spacing="4">From NoJob to YesJob</text>

  <rect x="300" y="320" width="80" height="1.5" rx="1" fill="url(#r_brand)" opacity="0.6"/>
</svg>
